<?xml version="1.0" encoding="iso-8859-1"?>
<svg fill="#000000" version="1.1" id="Capa_1" xmlns="http://www.w3.org/2000/svg" xmlns:xlink="http://www.w3.org/1999/xlink" 
	 width="800px" height="800px" viewBox="0 0 353.62 353.62"
	 xml:space="preserve">
<g>
	<g>
		<path d="M98.536,160.992c-3.902,8.587,0.388,20.997,11.789,34.063l33.438,38.349c9.054,10.39,21.173,16.092,34.106,16.092
			c12.926,0,25.026-5.702,34.086-16.092l33.448-38.349c11.593-13.305,16.006-25.848,12.121-34.396
			c-1.549-3.413-5.829-9.118-17.138-9.118h-17.204c-4.362,0-7.901-3.539-7.901-7.898V66.191c0-28.157-22.907-51.059-51.057-51.059
			H66.445c-15.355,0-25.958,4.748-29.846,13.406c-3.491,7.767-0.83,17.225,7.49,26.568C59.92,72.93,74.829,87.671,97.027,87.671
			h37.785c4.362,0,7.901,3.54,7.901,7.899v48.065c0,4.359-3.539,7.898-7.901,7.898h-18.344
			C104.611,151.542,100.148,157.468,98.536,160.992z M148.297,76.507h-51.27c-17.585,0-30.074-12.474-44.595-28.825
			c-5.144-5.776-7.206-11.1-5.634-14.553c1.881-4.235,9.417-6.84,19.654-6.84h97.771c21.985,0,39.885,17.899,39.885,39.902v90.937
			c0,3.082,2.498,5.57,5.581,5.57h30.696c2.168,0,5.951,0.355,6.972,2.59c1.087,2.395,0.32,10.151-10.374,22.43l-33.443,38.344
			c-6.901,7.927-16.026,12.278-25.68,12.278c-9.656,0-18.789-4.377-25.685-12.278l-33.448-38.344
			c-10.436-11.961-11.124-19.688-10.032-22.097c1.153-2.529,5.362-2.923,7.764-2.923h31.829c3.083,0,5.586-2.491,5.586-5.57V82.093
			C153.883,79.014,151.38,76.507,148.297,76.507z"/>
		<path d="M333.141,222.618h-79.806c-1.594,0-3.117,0.706-4.179,1.879l-46.245,52.177c-5.926,6.683-14.386,10.506-23.234,10.506
			c-7.741,0-15.191-2.915-20.982-8.195l-60.001-54.898c-1.034-0.939-2.369-1.473-3.776-1.473h-74.44
			C9.179,222.613,0,231.784,0,243.077v37.496c0,31.915,29.221,57.914,65.143,57.914h223.332c35.922,0,65.146-25.999,65.146-57.914
			v-37.496C353.62,231.789,344.435,222.618,333.141,222.618z M288.475,327.342H65.143c-29.767,0-53.981-20.997-53.981-46.758
			v-37.496c0-5.108,4.179-9.288,9.315-9.288h64.376c4.362,0,10.506,2.382,13.731,5.332l52.583,48.109
			c7.845,7.149,17.963,11.09,28.502,11.09c12.05,0,23.557-5.175,31.585-14.249l39.359-44.381c2.89-3.266,8.774-5.911,13.137-5.911
			h69.386c5.134,0,9.312,4.148,9.312,9.287v37.496C342.448,306.334,318.237,327.342,288.475,327.342z"/>
	</g>
</g>
</svg>